M48
INCH
T01C0.0150
T02C0.1000
T03C0.0360
T04C0.0910
T05C0.0300
T06C0.0320
T07C0.0250
%
T01
X+004922Y+006636
X+007086Y+007858
X+002510Y+004522
X+004416Y+003847
X+006988Y+005928
X+017427Y+014383
X+017427Y+012610
X+015053Y+015602
X+013314Y+016490
X+018461Y+016800
X+015900Y+016150
X+011589Y+002960
X+016870Y+008759
X+016858Y+008175
X+016376Y+007819
X+015879Y+007482
X+015359Y+007183
X+014930Y+006870
X+008950Y+008200
X+015564Y+009039
X+012787Y+007655
X+007350Y+014133
X+001801Y+011828
X+000542Y+014964
X+001368Y+014032
X+007316Y+008941
X+011636Y+007721
X+003929Y+017263
X+012750Y+016450
X+012744Y+015425
X+015823Y+009551
X+013450Y+010767
X+013464Y+013934
X+012500Y+011893
X+010240Y+010118
X+007382Y+011122
X+010019Y+009310
X+012363Y+009315
X+007106Y+011598
X+017020Y+013480
X+018949Y+014692
X+013309Y+016475
X+013000Y+011600
X+014279Y+013600
X+015372Y+012377
X+015061Y+012821
X+015019Y+011507
X+006879Y+013740
X+007336Y+010391
X+003137Y+017716
X+015400Y+004120
X+015250Y+006356
X+017226Y+009217
X+017187Y+010962
X+011640Y+008740
X+015100Y+005870
X+012750Y+015950
X+011510Y+015964
X+012840Y+013085
X+010450Y+013000
X+011535Y+014291
X+008208Y+014015
X+008385Y+013129
X+006337Y+013274
X+008661Y+014271
X+010452Y+014527
X+010433Y+015059
X+007780Y+012560
X+015000Y+010950
X+013804Y+012504
X+011683Y+014918
X+006220Y+016180
X+014737Y+004640
X+014790Y+002960
X+017630Y+010570
X+017700Y+002530
X+018056Y+006391
X+018243Y+003114
X+019271Y+010393
X+016411Y+009024
X+012590Y+001310
X+008917Y+014744
X+009448Y+014763
X+009960Y+014704
X+001771Y+005102
X+006496Y+005102
T02
X+018700Y+018700
X+000984Y+018700
X+018700Y+000984
X+000984Y+000984
T03
X+005993Y+005724
X+005993Y+004464
X+005013Y+004464
X+005013Y+005724
T04
X+004133Y+002724
X+004133Y+007464
T05
X+010236Y+018700
X+009448Y+018700
X+008661Y+018700
X+007874Y+018700
X+007086Y+018700
X+006299Y+018700
X+005511Y+018700
X+004724Y+018700
X+003937Y+018700
X+003149Y+018700
X+017322Y+018700
X+016535Y+018700
X+015748Y+018700
X+014960Y+018700
X+014173Y+018700
X+013385Y+018700
X+012598Y+018700
X+011811Y+018700
X+006299Y+000984
X+007086Y+000984
X+007874Y+000984
X+008661Y+000984
X+009448Y+000984
X+010236Y+000984
X+011023Y+000984
X+011811Y+000984
X+013385Y+000984
X+014173Y+000984
X+014960Y+000984
X+015748Y+000984
X+016535Y+000984
X+017322Y+000984
X+018700Y+003937
X+018700Y+004724
X+018700Y+005511
X+018700Y+006299
X+018700Y+007086
X+018700Y+007874
X+018700Y+008661
X+018700Y+009448
X+000885Y+011141
X+000885Y+010354
X+000885Y+009566
T06
X+018200Y+013850
X+018987Y+013850
X+018200Y+013062
X+018987Y+013062
X+018200Y+012275
X+018987Y+012275
T07
X+005353Y+014773
X+005353Y+015773
X+005353Y+016773
X+001353Y+016773
X+001353Y+015773
X+001353Y+014773
M30
